<svg xmlns="http://www.w3.org/2000/svg" xmlns:xlink="http://www.w3.org/1999/xlink" width="398.782" height="30.101" viewBox="0 0 398.782 30.101">
  <defs>
    <radialGradient id="radial-gradient" cx="0.552" cy="1.906" r="9.765" gradientTransform="matrix(0, -1, -0.077, 0, 0.594, 2.264)" gradientUnits="objectBoundingBox">
      <stop offset="0" stop-color="#5d5adc"/>
      <stop offset="1" stop-color="#0d0b4d"/>
    </radialGradient>
  </defs>
  <path id="title" d="M8.356.484A14.486,14.486,0,0,1,6.558.37Q5.652.257,4.768.076T3.015-.34Q2.146-.574,1.33-.831L1.012-6.815H2.206L3.476-3.823a1.454,1.454,0,0,0,.128.2q.083.113.181.227a2.55,2.55,0,0,0,.2.2,1.111,1.111,0,0,0,.174.136,7.7,7.7,0,0,0,1.171.612,13.482,13.482,0,0,0,1.322.484,11.348,11.348,0,0,0,1.284.317,6.081,6.081,0,0,0,1.073.113A4.345,4.345,0,0,0,10.585-1.8a3.643,3.643,0,0,0,1.194-.733,3.247,3.247,0,0,0,.763-1.088,3.324,3.324,0,0,0,.272-1.337,3.217,3.217,0,0,0-.166-1.065,2.574,2.574,0,0,0-.506-.861,3.584,3.584,0,0,0-.839-.688,8.051,8.051,0,0,0-1.179-.574,11.174,11.174,0,0,0-1.171-.408L7.8-8.885q-.574-.166-1.141-.34t-1.141-.4a6.772,6.772,0,0,1-1.64-.944,5.824,5.824,0,0,1-1.209-1.284,5.668,5.668,0,0,1-.748-1.564A6.105,6.105,0,0,1,1.662-15.2a5.119,5.119,0,0,1,.28-1.685,5.84,5.84,0,0,1,.778-1.5,6.675,6.675,0,0,1,1.186-1.262,7.031,7.031,0,0,1,1.541-.96,9.173,9.173,0,0,1,1.828-.612,9.241,9.241,0,0,1,2.032-.219q.922,0,1.844.076t1.768.212q.846.136,1.617.317t1.42.393v5.561H14.764l-1.133-2.8a1.234,1.234,0,0,0-.287-.4,3.533,3.533,0,0,0-.363-.31,3.19,3.19,0,0,0-.839-.446,9.592,9.592,0,0,0-1.058-.325,9.66,9.66,0,0,0-1.08-.2,7.188,7.188,0,0,0-.892-.068A4.016,4.016,0,0,0,7.7-19.2a3.085,3.085,0,0,0-1.058.642,2.947,2.947,0,0,0-.665.922,2.491,2.491,0,0,0-.234,1.043,3.944,3.944,0,0,0,.144,1.08,2.742,2.742,0,0,0,.468.929,3.262,3.262,0,0,0,.846.756,6.887,6.887,0,0,0,1.292.62q.559.2,1.1.355t1.1.325q.552.166,1.126.355t1.209.446a9.109,9.109,0,0,1,1.488.8,5.71,5.71,0,0,1,1.292,1.171,5.818,5.818,0,0,1,.907,1.587A5.557,5.557,0,0,1,17.06-6.15a6.223,6.223,0,0,1-.5,2.418,5.779,5.779,0,0,1-1.556,2.123A8.173,8.173,0,0,1,12.3-.1,11.881,11.881,0,0,1,8.356.484ZM22.924.3a4.041,4.041,0,0,1-1.677-.34,3.981,3.981,0,0,1-1.292-.914,4.055,4.055,0,0,1-.824-1.315,4.227,4.227,0,0,1-.287-1.541,4.229,4.229,0,0,1,.325-1.7,4.528,4.528,0,0,1,.869-1.322A5.4,5.4,0,0,1,21.3-7.812a8.26,8.26,0,0,1,1.5-.665,10.325,10.325,0,0,1,1.556-.385,9.064,9.064,0,0,1,1.473-.128q.151,0,.416.023l.559.045.567.045q.272.023.423.023l.015-2.07a6.959,6.959,0,0,0-.091-1.232,1.7,1.7,0,0,0-.317-.771,1.2,1.2,0,0,0-.589-.393,3.148,3.148,0,0,0-.922-.113,3.384,3.384,0,0,0-1.284.28,10.89,10.89,0,0,0-1.352.672q-.672.393-1.269.824t-1.035.718h-.559l-.544-3.1q.559-.242,1.209-.476t1.4-.423a14.309,14.309,0,0,1,1.587-.3,13.266,13.266,0,0,1,1.776-.113,10.633,10.633,0,0,1,2.2.234,5.844,5.844,0,0,1,1.987.8,4.444,4.444,0,0,1,1.428,1.5,4.424,4.424,0,0,1,.536,2.327l-.076,7.571a1.007,1.007,0,0,0,.083.423.92.92,0,0,0,.242.317,1.137,1.137,0,0,0,.385.212,1.729,1.729,0,0,0,.544.076,3.925,3.925,0,0,0,.544-.06q.378-.06.71-.136h.332V-.967a3.849,3.849,0,0,1-.642.393,9.3,9.3,0,0,1-.937.408,9.116,9.116,0,0,1-1.088.332A4.632,4.632,0,0,1,30.978.3,6,6,0,0,1,29.686.174a2.874,2.874,0,0,1-1-.416,1.925,1.925,0,0,1-.657-.771,2.726,2.726,0,0,1-.234-1.194h-.03A5.794,5.794,0,0,1,26.565-.854a5.046,5.046,0,0,1-1.284.763,4.91,4.91,0,0,1-1.254.325A9.936,9.936,0,0,1,22.924.3ZM25.281-2.07a4.226,4.226,0,0,0,.665-.053,2.586,2.586,0,0,0,.665-.2,2.838,2.838,0,0,0,.627-.393,2.363,2.363,0,0,0,.521-.62l.03-4.276a9.619,9.619,0,0,0-1.912.174,4.379,4.379,0,0,0-1.458.552,2.645,2.645,0,0,0-.929.96,2.858,2.858,0,0,0-.325,1.413,3.064,3.064,0,0,0,.2,1.179,2.2,2.2,0,0,0,.5.756,1.679,1.679,0,0,0,.68.4A2.569,2.569,0,0,0,25.281-2.07ZM35.1-.952l1.556-.529a1.2,1.2,0,0,0,.476-.31.758.758,0,0,0,.189-.536v-9.384a.965.965,0,0,0-.212-.635,1.518,1.518,0,0,0-.68-.423l-1.33-.5v-.816l6.286-1.133v2.463h.03a7.321,7.321,0,0,1,1.216-1.36A5.214,5.214,0,0,1,43.86-14.9a4.73,4.73,0,0,1,1.2-.363,7.741,7.741,0,0,1,1.179-.091,5.689,5.689,0,0,1,1.881.3,4.05,4.05,0,0,1,1.519.937,4.286,4.286,0,0,1,1.012,1.632,7,7,0,0,1,.363,2.388v7.707a.833.833,0,0,0,.2.589,1.248,1.248,0,0,0,.468.317l1.36.529V0H44.82V-.952l1.375-.529a1.277,1.277,0,0,0,.453-.317.833.833,0,0,0,.2-.589V-8.644a15.445,15.445,0,0,0-.091-1.783,3.656,3.656,0,0,0-.363-1.284,1.871,1.871,0,0,0-.771-.786,2.78,2.78,0,0,0-1.33-.272q-.348,0-.733.03a3.016,3.016,0,0,0-.756.159,2.69,2.69,0,0,0-.71.378,2.3,2.3,0,0,0-.6.672v9.2a.684.684,0,0,0,.2.529,2.011,2.011,0,0,0,.468.317l1.194.529V0H35.1ZM61.82,6.15a6.446,6.446,0,0,1-.7-.045q-.408-.045-.861-.128t-.884-.2a4.8,4.8,0,0,1-.763-.264l.62-3.521h.62q.408.242.929.514t1.065.5a9.77,9.77,0,0,0,1.073.378,3.546,3.546,0,0,0,.967.151,1.006,1.006,0,0,0,.589-.159.932.932,0,0,0,.332-.536,6.471,6.471,0,0,0,.151-.876q.06-.529.1-1.239t.053-1.587q.015-.876.015-1.9V-18.511a.824.824,0,0,0-.2-.559.947.947,0,0,0-.5-.3l-2.191-.6v-1h9.988v1l-1.98.6a1.04,1.04,0,0,0-.5.317.8.8,0,0,0-.2.544V-2.66a10.553,10.553,0,0,1-.612,3.71,8.154,8.154,0,0,1-1.677,2.773A7.249,7.249,0,0,1,64.8,5.553,7.536,7.536,0,0,1,61.82,6.15ZM79.2.3A5.773,5.773,0,0,1,77.331.008a3.776,3.776,0,0,1-1.5-.929,4.37,4.37,0,0,1-.982-1.624,7.124,7.124,0,0,1-.355-2.4v-6.77a.953.953,0,0,0-.227-.642,1.494,1.494,0,0,0-.665-.416l-1.33-.5v-.816l6.392-1.133v8.825a16.67,16.67,0,0,0,.083,1.768,3.912,3.912,0,0,0,.332,1.284,1.7,1.7,0,0,0,.748.778,2.809,2.809,0,0,0,1.315.264,6.655,6.655,0,0,0,.778-.045,3.741,3.741,0,0,0,.748-.166,2.441,2.441,0,0,0,.688-.363,2.45,2.45,0,0,0,.582-.635v-8.205a.781.781,0,0,0-.219-.589,1.774,1.774,0,0,0-.657-.363l-1.481-.5v-.816l6.543-1.239V-3.249a1.014,1.014,0,0,0,.2.635,1.33,1.33,0,0,0,.68.408l1.466.453v.816L84.32.3h-.272V-2.3h-.03a6.784,6.784,0,0,1-1.2,1.375,5.214,5.214,0,0,1-1.224.786,4.5,4.5,0,0,1-1.216.355A8.65,8.65,0,0,1,79.2.3Zm16.38,0A4.042,4.042,0,0,1,93.9-.038a3.981,3.981,0,0,1-1.292-.914,4.055,4.055,0,0,1-.824-1.315A4.227,4.227,0,0,1,91.5-3.808a4.229,4.229,0,0,1,.325-1.7,4.528,4.528,0,0,1,.869-1.322,5.4,5.4,0,0,1,1.262-.982,8.26,8.26,0,0,1,1.5-.665,10.325,10.325,0,0,1,1.556-.385,9.064,9.064,0,0,1,1.473-.128q.151,0,.416.023l.559.045.567.045q.272.023.423.023l.015-2.07a6.959,6.959,0,0,0-.091-1.232,1.7,1.7,0,0,0-.317-.771,1.2,1.2,0,0,0-.589-.393,3.148,3.148,0,0,0-.922-.113,3.384,3.384,0,0,0-1.284.28,10.89,10.89,0,0,0-1.352.672q-.672.393-1.269.824T93.6-10.94h-.559l-.544-3.1q.559-.242,1.209-.476t1.4-.423a14.308,14.308,0,0,1,1.587-.3,13.266,13.266,0,0,1,1.776-.113,10.633,10.633,0,0,1,2.2.234,5.844,5.844,0,0,1,1.987.8,4.444,4.444,0,0,1,1.428,1.5,4.424,4.424,0,0,1,.536,2.327l-.076,7.571a1.007,1.007,0,0,0,.083.423.919.919,0,0,0,.242.317,1.137,1.137,0,0,0,.385.212,1.729,1.729,0,0,0,.544.076,3.925,3.925,0,0,0,.544-.06q.378-.06.71-.136h.332V-.967a3.849,3.849,0,0,1-.642.393,9.3,9.3,0,0,1-.937.408,9.115,9.115,0,0,1-1.088.332,4.632,4.632,0,0,1-1.08.136A6,6,0,0,1,102.34.174a2.874,2.874,0,0,1-1-.416,1.925,1.925,0,0,1-.657-.771,2.726,2.726,0,0,1-.234-1.194h-.03A5.794,5.794,0,0,1,99.22-.854a5.046,5.046,0,0,1-1.284.763,4.91,4.91,0,0,1-1.254.325A9.936,9.936,0,0,1,95.578.3ZM97.935-2.07a4.226,4.226,0,0,0,.665-.053,2.586,2.586,0,0,0,.665-.2,2.838,2.838,0,0,0,.627-.393,2.363,2.363,0,0,0,.521-.62l.03-4.276a9.619,9.619,0,0,0-1.912.174,4.379,4.379,0,0,0-1.458.552,2.645,2.645,0,0,0-.929.96,2.858,2.858,0,0,0-.325,1.413,3.064,3.064,0,0,0,.2,1.179,2.2,2.2,0,0,0,.5.756,1.679,1.679,0,0,0,.68.4A2.569,2.569,0,0,0,97.935-2.07Zm9.822,1.118,1.556-.529a1.2,1.2,0,0,0,.476-.31.758.758,0,0,0,.189-.536v-9.384a.965.965,0,0,0-.212-.635,1.518,1.518,0,0,0-.68-.423l-1.33-.5v-.816l6.286-1.133v2.463h.03a7.321,7.321,0,0,1,1.216-1.36,5.214,5.214,0,0,1,1.224-.786,4.73,4.73,0,0,1,1.2-.363,7.741,7.741,0,0,1,1.179-.091,5.689,5.689,0,0,1,1.881.3,4.05,4.05,0,0,1,1.519.937,4.285,4.285,0,0,1,1.012,1.632,7,7,0,0,1,.363,2.388v7.707a.833.833,0,0,0,.2.589,1.248,1.248,0,0,0,.468.317l1.36.529V0h-8.22V-.952l1.375-.529A1.277,1.277,0,0,0,119.3-1.8a.833.833,0,0,0,.2-.589V-8.644a15.444,15.444,0,0,0-.091-1.783,3.657,3.657,0,0,0-.363-1.284,1.871,1.871,0,0,0-.771-.786,2.78,2.78,0,0,0-1.33-.272q-.348,0-.733.03a3.016,3.016,0,0,0-.756.159,2.69,2.69,0,0,0-.71.378,2.3,2.3,0,0,0-.6.672v9.2a.684.684,0,0,0,.2.529,2.011,2.011,0,0,0,.468.317l1.194.529V0h-8.251Zm27.155-.03,1.995-.62a.994.994,0,0,0,.491-.317.844.844,0,0,0,.189-.559V-18.511a.8.8,0,0,0-.2-.552,1.069,1.069,0,0,0-.484-.31l-1.995-.6v-1h9.762v1l-1.964.6a1.008,1.008,0,0,0-.5.31.8.8,0,0,0-.212.552v8.22l8.115-8.84-1.889-.846v-1h7.238v1l-2.131.831a4.64,4.64,0,0,0-.725.4,4.443,4.443,0,0,0-.71.612l-5.606,5.742L153.484-2.7q.136.2.3.393a3.827,3.827,0,0,0,.34.355,2.683,2.683,0,0,0,.363.28,1.508,1.508,0,0,0,.4.181l1.647.514V0h-9.475V-.982l2.07-.6-5.863-7.979L142-8.356v5.878a.808.808,0,0,0,.212.574,1.03,1.03,0,0,0,.5.3l1.949.62V0h-9.747ZM160.933.3a4.042,4.042,0,0,1-1.677-.34,3.981,3.981,0,0,1-1.292-.914,4.054,4.054,0,0,1-.824-1.315,4.227,4.227,0,0,1-.287-1.541,4.229,4.229,0,0,1,.325-1.7,4.528,4.528,0,0,1,.869-1.322,5.4,5.4,0,0,1,1.262-.982,8.26,8.26,0,0,1,1.5-.665,10.325,10.325,0,0,1,1.556-.385,9.064,9.064,0,0,1,1.473-.128q.151,0,.416.023l.559.045.567.045q.272.023.423.023l.015-2.07a6.96,6.96,0,0,0-.091-1.232,1.7,1.7,0,0,0-.317-.771,1.2,1.2,0,0,0-.589-.393,3.148,3.148,0,0,0-.922-.113,3.384,3.384,0,0,0-1.284.28,10.889,10.889,0,0,0-1.352.672q-.672.393-1.269.824t-1.035.718h-.559l-.544-3.1q.559-.242,1.209-.476t1.4-.423a14.309,14.309,0,0,1,1.587-.3,13.266,13.266,0,0,1,1.776-.113,10.633,10.633,0,0,1,2.2.234,5.844,5.844,0,0,1,1.987.8,4.444,4.444,0,0,1,1.428,1.5,4.424,4.424,0,0,1,.536,2.327l-.076,7.571a1.007,1.007,0,0,0,.083.423.919.919,0,0,0,.242.317,1.137,1.137,0,0,0,.385.212,1.729,1.729,0,0,0,.544.076,3.925,3.925,0,0,0,.544-.06q.378-.06.71-.136h.332V-.967a3.849,3.849,0,0,1-.642.393,9.3,9.3,0,0,1-.937.408,9.116,9.116,0,0,1-1.088.332,4.632,4.632,0,0,1-1.08.136A6,6,0,0,1,167.7.174a2.874,2.874,0,0,1-1-.416,1.925,1.925,0,0,1-.657-.771,2.726,2.726,0,0,1-.234-1.194h-.03a5.794,5.794,0,0,1-1.194,1.352,5.046,5.046,0,0,1-1.284.763,4.91,4.91,0,0,1-1.254.325A9.936,9.936,0,0,1,160.933.3Zm2.357-2.372a4.226,4.226,0,0,0,.665-.053,2.586,2.586,0,0,0,.665-.2,2.838,2.838,0,0,0,.627-.393,2.363,2.363,0,0,0,.521-.62l.03-4.276a9.619,9.619,0,0,0-1.912.174,4.379,4.379,0,0,0-1.458.552,2.645,2.645,0,0,0-.929.96,2.858,2.858,0,0,0-.325,1.413,3.064,3.064,0,0,0,.2,1.179,2.2,2.2,0,0,0,.5.756,1.679,1.679,0,0,0,.68.4A2.569,2.569,0,0,0,163.291-2.07Zm12.482,9.248a7.855,7.855,0,0,1-.99-.06q-.476-.06-.884-.144a6.034,6.034,0,0,1-.74-.2,4.469,4.469,0,0,1-.544-.219l.635-3.264h.5a2.206,2.206,0,0,0,.408.2q.242.091.521.181t.574.174q.295.083.567.136t.491.091a2.187,2.187,0,0,0,.355.038q.151,0,.332-.015t.363-.045a3.085,3.085,0,0,0,.34-.076.692.692,0,0,0,.264-.136,3.488,3.488,0,0,0,.627-.536,3.239,3.239,0,0,0,.438-.657,9.824,9.824,0,0,0,.431-.982l.574-1.5L178.462-2.01l-4.639-10.684a1.042,1.042,0,0,0-.385-.484,3.757,3.757,0,0,0-.657-.348l-1.073-.438v-.952H180v.952l-2.055.6L181.092-5.7l.635,1.541h.045l3.234-9.052L183-13.963v-.952h5.893v.952l-1.1.574q-.363.2-.635.37a1,1,0,0,0-.393.461L180.971,2.75a10.667,10.667,0,0,1-1.148,2.32,5.409,5.409,0,0,1-1.262,1.337,3.666,3.666,0,0,1-1.36.62A6.773,6.773,0,0,1,175.772,7.178ZM193.029.3a4.042,4.042,0,0,1-1.677-.34,3.981,3.981,0,0,1-1.292-.914,4.054,4.054,0,0,1-.824-1.315,4.227,4.227,0,0,1-.287-1.541,4.229,4.229,0,0,1,.325-1.7,4.528,4.528,0,0,1,.869-1.322,5.4,5.4,0,0,1,1.262-.982,8.26,8.26,0,0,1,1.5-.665,10.325,10.325,0,0,1,1.556-.385,9.064,9.064,0,0,1,1.473-.128q.151,0,.416.023l.559.045.567.045q.272.023.423.023l.015-2.07a6.96,6.96,0,0,0-.091-1.232,1.7,1.7,0,0,0-.317-.771,1.2,1.2,0,0,0-.589-.393,3.148,3.148,0,0,0-.922-.113,3.384,3.384,0,0,0-1.284.28,10.889,10.889,0,0,0-1.352.672q-.672.393-1.269.824t-1.035.718h-.559l-.544-3.1q.559-.242,1.209-.476t1.4-.423a14.309,14.309,0,0,1,1.587-.3,13.266,13.266,0,0,1,1.776-.113,10.633,10.633,0,0,1,2.2.234,5.844,5.844,0,0,1,1.987.8,4.444,4.444,0,0,1,1.428,1.5,4.424,4.424,0,0,1,.536,2.327l-.076,7.571a1.007,1.007,0,0,0,.083.423.919.919,0,0,0,.242.317,1.137,1.137,0,0,0,.385.212,1.729,1.729,0,0,0,.544.076,3.925,3.925,0,0,0,.544-.06q.378-.06.71-.136h.332V-.967a3.849,3.849,0,0,1-.642.393,9.3,9.3,0,0,1-.937.408,9.117,9.117,0,0,1-1.088.332,4.632,4.632,0,0,1-1.08.136,6,6,0,0,1-1.292-.128,2.874,2.874,0,0,1-1-.416,1.925,1.925,0,0,1-.657-.771,2.726,2.726,0,0,1-.234-1.194h-.03a5.794,5.794,0,0,1-1.194,1.352,5.046,5.046,0,0,1-1.284.763,4.91,4.91,0,0,1-1.254.325A9.936,9.936,0,0,1,193.029.3Zm2.357-2.372a4.226,4.226,0,0,0,.665-.053,2.586,2.586,0,0,0,.665-.2,2.838,2.838,0,0,0,.627-.393,2.363,2.363,0,0,0,.521-.62l.03-4.276a9.619,9.619,0,0,0-1.912.174,4.379,4.379,0,0,0-1.458.552,2.645,2.645,0,0,0-.929.96,2.858,2.858,0,0,0-.325,1.413,3.064,3.064,0,0,0,.2,1.179,2.2,2.2,0,0,0,.5.756,1.679,1.679,0,0,0,.68.4A2.569,2.569,0,0,0,195.387-2.07Zm9.535,1.118,1.526-.529a1.037,1.037,0,0,0,.506-.332.832.832,0,0,0,.159-.514V-19.463a.726.726,0,0,0-.2-.559,2.156,2.156,0,0,0-.68-.363l-1.481-.589v-.816l6.543-1.133V-7.5l5.516-5.757-1.738-.71v-.952h6.407v.952l-1.662.559a2.525,2.525,0,0,0-.642.332,3.986,3.986,0,0,0-.536.438l-3.143,2.9L220.426-2.1a1.634,1.634,0,0,0,.468.461,2.769,2.769,0,0,0,.65.31l1.1.378V0h-7.676V-.952l1.209-.529-3.506-5.712-1.39.922v3.944a.717.717,0,0,0,.181.529,1.611,1.611,0,0,0,.484.317l1.209.529V0h-8.236Zm25.885-.03L232.8-1.6a1.044,1.044,0,0,0,.484-.317.824.824,0,0,0,.2-.559V-18.511a.824.824,0,0,0-.2-.559.945.945,0,0,0-.484-.3l-1.995-.6v-1h17.076v5.531h-1.224L245.5-18.617a1.315,1.315,0,0,0-.219-.393.5.5,0,0,0-.4-.151h-6.981v7.344h4.337a.573.573,0,0,0,.431-.136,1.138,1.138,0,0,0,.219-.363l.967-2.463h1.088v7.722h-1.088l-.967-2.433a1.356,1.356,0,0,0-.219-.378.538.538,0,0,0-.431-.151h-4.337v8.19h8.251a.563.563,0,0,0,.416-.144.923.923,0,0,0,.219-.4l1.1-3.581h1.224V0h-18.3Zm19.146.03,1.209-.529a3.327,3.327,0,0,0,.71-.37,2.586,2.586,0,0,0,.468-.416l3.974-4.851-3.929-5.606a1.865,1.865,0,0,0-.431-.438,3.076,3.076,0,0,0-.672-.363l-1.194-.438v-.952h8.3v.952l-1.753.589,1.768,2.856.831,1.33h.03l3.022-4.1-1.662-.68v-.952h5.818v.952l-1.224.514a2.851,2.851,0,0,0-.7.393,5.429,5.429,0,0,0-.468.408L260.2-8.069l4.156,5.863a1.764,1.764,0,0,0,.446.461,2.957,2.957,0,0,0,.657.34l1.148.453V0h-8.281V-.952l1.783-.6-1.98-3.113-.8-1.3h-.03l-3.188,4.337,1.662.68V0h-5.818Zm17.166,7.178,1.572-.544a1.153,1.153,0,0,0,.5-.317.768.768,0,0,0,.166-.514V-11.711a1.009,1.009,0,0,0-.189-.627,1.482,1.482,0,0,0-.688-.431l-1.33-.5v-.816l6.256-1.133v2.463h.045a6.661,6.661,0,0,1,1.375-1.473A5.7,5.7,0,0,1,276.163-15a4.516,4.516,0,0,1,1.194-.3q.552-.053.929-.053a5.278,5.278,0,0,1,2.448.552,5.4,5.4,0,0,1,1.821,1.519,6.814,6.814,0,0,1,1.133,2.289,10.311,10.311,0,0,1,.385,2.894,10.993,10.993,0,0,1-.468,3.256,8.105,8.105,0,0,1-1.36,2.652A6.488,6.488,0,0,1,280.062-.4a6.357,6.357,0,0,1-2.924.657,5.506,5.506,0,0,1-1.194-.121,4.661,4.661,0,0,1-.99-.332,4.7,4.7,0,0,1-.808-.484,5.019,5.019,0,0,1-.635-.559l.015.665V4.851a.806.806,0,0,0,.181.544.913.913,0,0,0,.5.287l1.995.544v.952h-9.082Zm9.006-7.948a3,3,0,0,0,1.617-.423,3.326,3.326,0,0,0,1.111-1.148,5.664,5.664,0,0,0,.642-1.692,9.678,9.678,0,0,0,.212-2.07,12.779,12.779,0,0,0-.2-2.327,5.9,5.9,0,0,0-.62-1.813,3.216,3.216,0,0,0-1.1-1.179,2.989,2.989,0,0,0-1.624-.423q-.272,0-.635.03a3.218,3.218,0,0,0-.733.151,2.521,2.521,0,0,0-.7.363,2.081,2.081,0,0,0-.574.665V-2.4a1.955,1.955,0,0,0,.536.3,4.134,4.134,0,0,0,.71.212q.37.076.733.121A5.112,5.112,0,0,0,276.125-1.723ZM293.276.332a8.965,8.965,0,0,1-3.06-.5,6.545,6.545,0,0,1-2.388-1.481,6.661,6.661,0,0,1-1.556-2.425,9.3,9.3,0,0,1-.552-3.332,8.735,8.735,0,0,1,.529-3.03,7.61,7.61,0,0,1,1.519-2.531,7.322,7.322,0,0,1,2.418-1.738,7.706,7.706,0,0,1,3.226-.65,6.994,6.994,0,0,1,2.75.506,6.167,6.167,0,0,1,2,1.322,5.584,5.584,0,0,1,1.232,1.874A5.733,5.733,0,0,1,299.82-9.5q0,.136-.008.378t-.023.491q-.015.249-.03.476t-.03.332h-9.671a6.636,6.636,0,0,0,1.209,4.254,4.488,4.488,0,0,0,3.687,1.458,7.034,7.034,0,0,0,1.481-.144,7.993,7.993,0,0,0,1.209-.355,7.682,7.682,0,0,0,.975-.453q.431-.242.763-.423h.408v1.269a11.061,11.061,0,0,1-1.224.892,11.733,11.733,0,0,1-1.541.824,10.592,10.592,0,0,1-1.783.6A8.193,8.193,0,0,1,293.276.332Zm2.282-9.58a14.1,14.1,0,0,0-.106-1.791,4.782,4.782,0,0,0-.385-1.42,2.343,2.343,0,0,0-.756-.937,1.989,1.989,0,0,0-1.186-.34,2.46,2.46,0,0,0-1.239.31,2.639,2.639,0,0,0-.914.884,4.733,4.733,0,0,0-.582,1.413,10.108,10.108,0,0,0-.272,1.881ZM307.224.3a5.3,5.3,0,0,1-2.433-.544A5.284,5.284,0,0,1,302.97-1.76a7.123,7.123,0,0,1-1.148-2.3,9.948,9.948,0,0,1-.4-2.894,10.9,10.9,0,0,1,.476-3.264,8.3,8.3,0,0,1,1.368-2.667,6.532,6.532,0,0,1,2.184-1.806,6.364,6.364,0,0,1,2.954-.665,5.2,5.2,0,0,1,1.194.128,4.61,4.61,0,0,1,.975.34,4.683,4.683,0,0,1,.786.484,5.3,5.3,0,0,1,.627.559l-.015-.725v-4.79a1.1,1.1,0,0,0-.181-.65,1.327,1.327,0,0,0-.7-.423l-1.692-.544v-.816l6.74-1.133V-3.249a1.073,1.073,0,0,0,.181.635,1.272,1.272,0,0,0,.71.408l1.451.453v.816L312.362.3H312.1V-2.236h-.045a6.17,6.17,0,0,1-1.345,1.413,5.975,5.975,0,0,1-1.337.756,4.754,4.754,0,0,1-1.2.31A9.072,9.072,0,0,1,307.224.3Zm2.131-2.569q.287,0,.642-.03a3.1,3.1,0,0,0,.718-.151,2.962,2.962,0,0,0,.7-.34,1.823,1.823,0,0,0,.559-.6v-9.293a2.415,2.415,0,0,0-.559-.295,5.313,5.313,0,0,0-.68-.212,6.731,6.731,0,0,0-.7-.128,4.94,4.94,0,0,0-.635-.045,2.931,2.931,0,0,0-1.594.423,3.583,3.583,0,0,0-1.126,1.141,5.214,5.214,0,0,0-.665,1.692,9.78,9.78,0,0,0-.212,2.078,12.961,12.961,0,0,0,.2,2.357,5.867,5.867,0,0,0,.627,1.821,3.135,3.135,0,0,0,1.1,1.171A3.075,3.075,0,0,0,309.355-2.267Zm14.31-15.746a2.552,2.552,0,0,1-1-.2,2.726,2.726,0,0,1-.816-.521,2.5,2.5,0,0,1-.559-.778,2.294,2.294,0,0,1-.212-.982,2.243,2.243,0,0,1,.2-.944,2.424,2.424,0,0,1,.552-.771,2.506,2.506,0,0,1,.816-.506,2.78,2.78,0,0,1,1.012-.181,2.946,2.946,0,0,1,1.043.181,2.629,2.629,0,0,1,.839.5,2.309,2.309,0,0,1,.559.756,2.228,2.228,0,0,1,.2.952,2.366,2.366,0,0,1-.2.982,2.378,2.378,0,0,1-.567.786,2.8,2.8,0,0,1-.846.529A2.7,2.7,0,0,1,323.665-18.012ZM319.419-.952,321.1-1.5a1,1,0,0,0,.484-.3.806.806,0,0,0,.181-.544v-9.324a.982.982,0,0,0-.2-.627,1.541,1.541,0,0,0-.7-.431l-1.39-.514v-.831l6.468-1.073v12.8a.772.772,0,0,0,.181.544,1.168,1.168,0,0,0,.484.3l1.556.544V0h-8.749ZM335.6.287A7.366,7.366,0,0,1,333.8.076a4.736,4.736,0,0,1-1.458-.62,3.1,3.1,0,0,1-.967-.982,2.46,2.46,0,0,1-.348-1.3V-13.071h-2.4V-14.22a9.449,9.449,0,0,0,1.088-.28,2.913,2.913,0,0,0,.839-.423,1.82,1.82,0,0,0,.559-.7,3.1,3.1,0,0,0,.249-1.111l.121-1.919,3.717-.574v4.382h5.244l-.408,1.768h-4.836v9.308a1.215,1.215,0,0,0,.31.824,2.657,2.657,0,0,0,.74.589,3.869,3.869,0,0,0,.914.355,3.552,3.552,0,0,0,.846.121q.242,0,.506-.023t.506-.06q.242-.038.461-.083t.385-.091h.393v1.073q-.242.136-.7.363a10.366,10.366,0,0,1-1.073.446,10.733,10.733,0,0,1-1.345.378A7.232,7.232,0,0,1,335.6.287Zm9.49-18.3a2.552,2.552,0,0,1-1-.2,2.726,2.726,0,0,1-.816-.521,2.5,2.5,0,0,1-.559-.778,2.294,2.294,0,0,1-.212-.982,2.243,2.243,0,0,1,.2-.944,2.424,2.424,0,0,1,.552-.771,2.506,2.506,0,0,1,.816-.506,2.78,2.78,0,0,1,1.012-.181,2.946,2.946,0,0,1,1.043.181,2.629,2.629,0,0,1,.839.5,2.309,2.309,0,0,1,.559.756,2.228,2.228,0,0,1,.2.952,2.366,2.366,0,0,1-.2.982,2.378,2.378,0,0,1-.567.786,2.8,2.8,0,0,1-.846.529A2.7,2.7,0,0,1,345.092-18.012ZM340.846-.952l1.677-.544a1,1,0,0,0,.484-.3.806.806,0,0,0,.181-.544v-9.324a.982.982,0,0,0-.2-.627,1.541,1.541,0,0,0-.7-.431l-1.39-.514v-.831l6.468-1.073v12.8a.772.772,0,0,0,.181.544,1.168,1.168,0,0,0,.484.3l1.556.544V0h-8.749Zm17.6,1.36a8.688,8.688,0,0,1-3.181-.552,6.685,6.685,0,0,1-2.4-1.572,6.963,6.963,0,0,1-1.526-2.471,9.313,9.313,0,0,1-.536-3.249,8.955,8.955,0,0,1,.529-3.105,7.32,7.32,0,0,1,1.534-2.516,7.09,7.09,0,0,1,2.456-1.685,8.447,8.447,0,0,1,3.309-.612,8.377,8.377,0,0,1,3.445.65,6.687,6.687,0,0,1,2.38,1.73,7.088,7.088,0,0,1,1.383,2.508,9.755,9.755,0,0,1,.453,2.969,8.983,8.983,0,0,1-.521,3.075A7.226,7.226,0,0,1,364.246-1.9a7.16,7.16,0,0,1-2.463,1.692A8.453,8.453,0,0,1,358.451.408Zm.212-1.632a2.236,2.236,0,0,0,1.594-.574,3.951,3.951,0,0,0,.96-1.451,7.557,7.557,0,0,0,.468-1.934,17.851,17.851,0,0,0,.121-2.025,16.757,16.757,0,0,0-.166-2.372,8.3,8.3,0,0,0-.559-2.085,4.078,4.078,0,0,0-1.035-1.488,2.344,2.344,0,0,0-1.609-.567,2.25,2.25,0,0,0-1.579.559,3.737,3.737,0,0,0-.952,1.436,7.994,7.994,0,0,0-.468,1.927,16.63,16.63,0,0,0-.128,2.017,19.279,19.279,0,0,0,.136,2.236,8.683,8.683,0,0,0,.506,2.123,4.261,4.261,0,0,0,1.02,1.579A2.351,2.351,0,0,0,358.662-1.224Zm9.172.272,1.556-.529a1.2,1.2,0,0,0,.476-.31.758.758,0,0,0,.189-.536v-9.384a.965.965,0,0,0-.212-.635,1.518,1.518,0,0,0-.68-.423l-1.33-.5v-.816l6.286-1.133v2.463h.03a7.321,7.321,0,0,1,1.216-1.36,5.214,5.214,0,0,1,1.224-.786,4.73,4.73,0,0,1,1.2-.363,7.74,7.74,0,0,1,1.179-.091,5.689,5.689,0,0,1,1.881.3,4.05,4.05,0,0,1,1.519.937,4.286,4.286,0,0,1,1.012,1.632,7,7,0,0,1,.363,2.388v7.707a.833.833,0,0,0,.2.589,1.248,1.248,0,0,0,.468.317l1.36.529V0h-8.22V-.952l1.375-.529a1.277,1.277,0,0,0,.453-.317.833.833,0,0,0,.2-.589V-8.644a15.443,15.443,0,0,0-.091-1.783,3.657,3.657,0,0,0-.363-1.284,1.871,1.871,0,0,0-.771-.786,2.78,2.78,0,0,0-1.33-.272q-.348,0-.733.03a3.016,3.016,0,0,0-.756.159,2.69,2.69,0,0,0-.71.378,2.3,2.3,0,0,0-.6.672v9.2a.684.684,0,0,0,.2.529,2.011,2.011,0,0,0,.468.317l1.194.529V0h-8.251ZM392.859.438a13.625,13.625,0,0,1-1.7-.1,13.913,13.913,0,0,1-1.451-.257q-.672-.159-1.247-.332t-1.1-.325V-4.926h1.405l.559,1.632a1.164,1.164,0,0,0,.174.332,1.725,1.725,0,0,0,.264.28,2.953,2.953,0,0,0,.3.227,3.094,3.094,0,0,0,.3.174,5.418,5.418,0,0,0,.657.317,8.891,8.891,0,0,0,.854.3,9.264,9.264,0,0,0,.929.227,4.887,4.887,0,0,0,.914.091,3.407,3.407,0,0,0,.9-.113,1.838,1.838,0,0,0,.718-.37,1.761,1.761,0,0,0,.476-.665,2.59,2.59,0,0,0,.174-1.012,1.471,1.471,0,0,0-.227-.846,2.122,2.122,0,0,0-.612-.582,3.734,3.734,0,0,0-.869-.408q-.484-.159-1-.31l-1.345-.378q-.589-.166-1.179-.348A5.515,5.515,0,0,1,389.413-7a4.163,4.163,0,0,1-1-.914,3.717,3.717,0,0,1-.627-1.216,5.038,5.038,0,0,1-.212-1.488,3.755,3.755,0,0,1,.514-1.934,4.8,4.8,0,0,1,1.405-1.5,6.976,6.976,0,0,1,2.093-.975,9.175,9.175,0,0,1,2.561-.348q.831,0,1.473.053t1.194.136q.552.083,1.043.2l1.02.234.212,4.352h-1.451L397-12.028a1.518,1.518,0,0,0-.378-.544,2.342,2.342,0,0,0-.559-.393,5.436,5.436,0,0,0-.567-.257,6.589,6.589,0,0,0-.672-.219,7.3,7.3,0,0,0-.733-.159,4.542,4.542,0,0,0-.733-.06,2.1,2.1,0,0,0-.65.113,2.034,2.034,0,0,0-.635.34,1.791,1.791,0,0,0-.476.589,1.877,1.877,0,0,0-.189.876,2.029,2.029,0,0,0,.181.9,1.762,1.762,0,0,0,.5.62,3.041,3.041,0,0,0,.718.416,7.131,7.131,0,0,0,.839.287l1.277.408q.612.2,1.05.332a9.633,9.633,0,0,1,1.549.612,5,5,0,0,1,1.209.839,3.441,3.441,0,0,1,.786,1.126,3.742,3.742,0,0,1,.28,1.5,4.413,4.413,0,0,1-.582,2.3,4.851,4.851,0,0,1-1.549,1.6,7.107,7.107,0,0,1-2.221.929A10.992,10.992,0,0,1,392.859.438Z" transform="translate(-1.012 22.924)" fill="url(#radial-gradient)"/>
</svg>
